Coordinates
version=1
nRows=5
nColumns=42
inDegrees=yes

Units are S.I. units (second, meters, Newtons, ...)
If the header above contains a line with 'inDegrees', this indicates whether rotational values are in degrees (yes) or radians (no).

endheader
time	pelvis_tilt	pelvis_list	pelvis_rotation	pelvis_tx	pelvis_ty	pelvis_tz	hip_flexion_r	hip_adduction_r	hip_rotation_r	knee_angle_r	knee_adduction_r	knee_angle_r_beta	ankle_angle_r	subtalar_angle_r	mtp_angle_r	hip_flexion_l	hip_adduction_l	hip_rotation_l	knee_angle_l	knee_adduction_l	knee_angle_l_beta	ankle_angle_l	subtalar_angle_l	mtp_angle_l	lumbar_extension	lumbar_bending	lumbar_rotation	arm_flex_r	arm_add_r	arm_rot_r	elbow_flex_r	pro_sup_r	wrist_flex_r	wrist_dev_r	arm_flex_l	arm_add_l	arm_rot_l	elbow_flex_l	pro_sup_l	wrist_flex_l	wrist_dev_l
      0.00000000	      1.24664331	     -3.54806599	      0.00192532	     -1.06810441	      0.94429781	     -0.25819933	     23.96907738	      3.41231969	     -9.64138274	     15.64356053	     -1.40718240	      0.27303164	     -0.88780789	      1.03310471	     -9.36411810	    -17.42018344	     -3.69538654	      2.59626335	     21.28025933	      2.74936448	      0.37141059	      7.87145837	     -4.90525182	     -9.36411810	    -12.48318389	      5.11502646	      0.84454281	    -13.96557575	    -11.38397094	     -8.33678100	     28.79461057	     90.00000001	      0.00000000	      0.00000000	     13.11788075	    -14.75141272	     20.89988507	     50.28851507	     90.00000001	      0.00000000	      0.00000000
      0.01000000	      1.36607507	     -3.94874938	     -0.04897879	     -1.05218413	      0.94492788	     -0.25712232	     23.91389026	      4.03277820	     -8.97953069	     17.55413670	     -1.57142303	      0.30637748	     -1.30999732	      0.42758156	     -9.28626230	    -16.68009361	     -4.27118332	      2.15100812	     24.46331966	      2.89597662	      0.42696547	      5.36322737	     -5.83473569	     -9.28626230	    -12.54715426	      5.76848465	      1.03906013	    -13.81027662	    -11.44145315	     -8.56108781	     28.46129447	     90.00000001	      0.00000000	      0.00000000	     12.85351867	    -14.14642567	     19.93242280	     49.85590339	     90.00000001	      0.00000000	      0.00000000
      0.02000000	      1.48771509	     -4.36992726	     -0.16094568	     -1.03651742	      0.94602269	     -0.25580102	     23.54846764	      4.75784320	     -7.32349044	     18.96332417	     -1.40404487	      0.33097244	     -2.11459731	     -1.82915584	     -9.13370619	    -15.68756465	     -4.90377265	      1.48371170	     27.90841547	      2.99121024	      0.48709374	      2.51205717	     -6.71202503	     -9.13370619	    -12.66931569	      6.40617005	      1.34199172	    -13.59413480	    -11.41232854	     -9.00871996	     28.20351319	     90.00000001	      0.00000000	      0.00000000	     12.55605353	    -13.52003955	     18.87763797	     49.45012422	     90.00000001	      0.00000000	      0.00000000
      0.03000000	      1.68715312	     -4.92208234	     -0.18747727	     -1.02085481	      0.94750422	     -0.25442398	     23.03541567	      5.60286979	     -6.37145450	     20.25014607	     -1.40447094	      0.35343172	     -2.40104871	     -2.95570621	     -9.07358973	    -14.56953420	     -5.76851982	      0.73470760	     31.51552698	      3.06183127	      0.55004971	     -0.47710436	     -7.70452604	     -9.07358973	    -12.87000077	      7.16632309	      1.63443742	    -13.42564926	    -11.40641900	     -9.32269925	     28.10180508	     90.00000001	      0.00000000	      0.00000000	     12.17765660	    -12.88070051	     17.68644030	     49.10146583	     90.00000001	      0.00000000	      0.00000000
      0.04000000	      1.80686100	     -5.39773437	     -0.25137596	     -1.00546940	      0.94918452	     -0.25297773	     22.45976680	      6.37391836	     -5.34032482	     21.25717266	     -1.30170672	      0.37100765	     -2.61340245	     -4.29169365	     -9.02098298	    -13.15552750	     -6.55828773	     -0.13941552	     35.21719638	      2.95642790	      0.61465603	     -3.51290880	     -8.72878907	     -9.02098298	    -13.00626861	      7.80991956	      1.95924017	    -13.25138960	    -11.37755786	     -9.62505860	     28.09739570	     90.00000001	      0.00000000	      0.00000000	     11.76285871	    -12.28364201	     16.51624196	     48.81711780	     90.00000001	      0.00000000	      0.00000000
